<?xml version="1.0" standalone="no"?>
<!DOCTYPE svg PUBLIC "-//W3C//DTD SVG 20010904//EN"
 "http://www.w3.org/TR/2001/REC-SVG-20010904/DTD/svg10.dtd">
<svg version="1.0" xmlns="http://www.w3.org/2000/svg"
 width="1777.000000pt" height="1777.000000pt" viewBox="0 0 1777.000000 1777.000000"
 preserveAspectRatio="xMidYMid meet">
<metadata>
Created by potrace 1.14, written by Peter Selinger 2001-2017
</metadata>
<g transform="translate(0.000000,1777.000000) scale(0.100000,-0.100000)"
fill="#000000" stroke="none">
<path d="M9755 17696 c-82 -24 -199 -66 -260 -93 -60 -28 -139 -64 -175 -81
-80 -37 -276 -130 -350 -167 -68 -33 -353 -132 -555 -191 -233 -69 -412 -132
-500 -177 -44 -22 -82 -43 -85 -46 -3 -3 -27 -17 -55 -31 -31 -15 -89 -64
-155 -131 -97 -98 -156 -179 -238 -329 -29 -52 -120 -327 -126 -380 -9 -80
-17 -139 -26 -194 -4 -27 -6 -83 -4 -125 2 -42 6 -116 8 -166 2 -59 17 -143
41 -243 21 -84 36 -154 34 -156 -2 -2 -344 -6 -759 -9 -415 -3 -775 -8 -800
-10 -25 -3 -74 -8 -110 -12 -151 -14 -181 -17 -295 -36 -116 -19 -313 -68
-365 -90 -14 -6 -27 -11 -30 -12 -3 0 -39 -16 -80 -35 -83 -38 -222 -131 -257
-173 -13 -15 -37 -42 -54 -60 -65 -69 -134 -200 -182 -344 -20 -60 -39 -126
-42 -145 -3 -19 -8 -42 -10 -50 -2 -8 -7 -31 -10 -50 -3 -19 -7 -46 -10 -60
-8 -48 -19 -138 -30 -245 -7 -73 -18 -388 -19 -532 l-1 -143 -55 -1 c-164 -2
-318 -9 -495 -25 -64 -5 -350 -49 -350 -54 0 -2 -12 -5 -50 -13 -11 -3 -40
-11 -65 -18 -52 -15 -45 -13 -90 -23 -31 -8 -122 -46 -259 -108 -93 -42 -260
-170 -353 -269 -84 -91 -117 -140 -212 -314 -31 -55 -129 -327 -140 -385 -3
-14 -7 -35 -10 -46 -2 -12 -7 -37 -10 -55 -3 -19 -8 -45 -11 -59 -17 -85 -27
-152 -31 -214 -2 -39 -6 -96 -9 -126 -5 -71 -6 -239 0 -310 2 -30 7 -93 10
-138 3 -46 7 -87 9 -90 2 -4 7 -29 10 -56 4 -27 9 -52 11 -55 1 -3 6 -22 9
-41 15 -97 40 -188 85 -317 107 -305 273 -529 506 -685 61 -40 121 -79 135
-85 115 -53 216 -94 275 -111 127 -36 229 -62 268 -67 81 -11 114 -16 162 -25
28 -5 83 -12 123 -15 39 -3 102 -7 140 -10 37 -3 138 -7 225 -9 87 -2 161 -7
165 -11 4 -4 7 -518 8 -1143 1 -1028 5 -1326 19 -1432 7 -52 14 -110 20 -158
14 -117 102 -400 127 -410 4 -2 8 -8 8 -14 0 -21 96 -142 155 -195 34 -30 91
-71 126 -90 35 -19 69 -38 74 -43 38 -29 342 -113 485 -134 206 -29 235 -32
395 -41 180 -11 268 -14 391 -16 l121 -2 -2 -916 c-3 -816 -6 -1096 -20 -1541
-2 -69 -6 -226 -10 -350 -8 -279 -15 -387 -40 -555 -8 -57 -34 -158 -42 -165
-25 -20 -82 -60 -87 -60 -3 0 -37 -20 -75 -45 -65 -42 -74 -52 -127 -148 -32
-56 -63 -109 -70 -117 -10 -12 -29 -80 -70 -253 -5 -22 -12 -55 -19 -87 -2
-14 -7 -68 -11 -120 -3 -52 -8 -111 -10 -130 -5 -58 -5 -723 1 -750 2 -14 8
-52 11 -85 4 -40 19 -85 44 -135 34 -67 46 -80 113 -127 67 -47 88 -56 213
-87 165 -42 268 -51 569 -51 293 0 503 17 593 49 23 8 42 13 42 9 0 -3 6 -1
13 4 6 6 38 18 70 28 46 14 71 31 125 84 60 60 70 74 93 147 34 104 38 200 25
549 -4 99 -9 236 -11 305 -23 622 -34 1652 -35 3415 l-1 1130 1198 0 c1059 0
1198 -2 1196 -15 -1 -8 -13 -53 -27 -100 -15 -47 -29 -110 -31 -140 -3 -30 -7
-86 -10 -125 -3 -38 -8 -549 -10 -1135 -5 -1425 -17 -2210 -40 -2715 -3 -60
-7 -162 -10 -225 -2 -63 -6 -151 -9 -195 -3 -44 -8 -132 -11 -195 -4 -63 -8
-133 -10 -155 -5 -49 -6 -301 -1 -335 10 -67 59 -166 105 -209 81 -76 104 -88
236 -125 153 -43 219 -52 575 -73 236 -14 732 -7 960 13 74 7 62 5 195 33 55
12 109 22 120 24 11 1 60 25 109 52 65 37 96 61 115 90 14 22 28 42 31 45 20
19 39 63 44 105 4 28 10 66 13 85 9 47 8 596 0 685 -4 39 -9 102 -12 140 -7
97 -90 367 -129 424 -17 24 -35 50 -41 59 -12 19 -23 33 -73 97 -34 43 -58 59
-175 118 -122 61 -189 84 -297 100 -13 2 -24 10 -26 18 -3 18 -8 44 -33 154
-19 85 -26 131 -55 353 -10 71 -18 254 -32 677 -7 238 -16 876 -19 1450 -2
341 -6 643 -9 670 -3 28 -8 73 -10 100 -5 52 -12 86 -26 120 -4 11 -13 40 -20
64 -6 23 -13 48 -16 55 -3 9 71 12 298 12 291 1 644 10 731 19 23 2 78 7 122
10 44 3 91 8 105 10 14 2 61 9 105 15 44 6 100 15 125 20 25 5 56 12 70 14 50
8 147 36 230 66 127 47 233 108 311 179 131 119 209 266 264 496 12 50 31 172
40 265 15 147 17 315 19 1391 2 652 5 1190 9 1195 3 6 56 11 116 13 61 1 120
4 131 6 12 2 60 7 108 10 48 3 127 12 177 20 49 8 108 17 130 21 87 13 322 79
393 111 191 86 199 90 362 204 46 32 102 88 194 194 86 98 180 281 247 478 32
95 60 190 63 212 2 22 11 74 20 115 23 117 25 138 33 250 9 132 9 334 0 468
-6 90 -42 336 -52 351 -1 3 -6 24 -9 46 -4 22 -31 113 -61 202 -77 224 -177
398 -308 534 -50 52 -121 115 -157 140 -36 24 -66 47 -68 52 -2 4 -8 7 -14 7
-6 0 -25 10 -42 23 -34 25 -266 127 -331 145 -161 46 -279 72 -395 87 -25 3
-52 8 -60 10 -24 6 -271 25 -405 30 -33 2 -64 3 -70 4 -6 1 -10 73 -11 194 -1
178 -10 421 -19 492 -2 17 -6 62 -10 100 -7 72 -11 102 -20 145 -3 14 -8 41
-11 60 -3 19 -7 42 -9 50 -2 8 -7 29 -9 45 -10 60 -83 263 -111 311 -16 27
-28 51 -28 54 1 7 -56 89 -76 110 -9 9 -32 34 -51 56 -51 59 -186 149 -292
196 -163 71 -424 134 -638 154 -36 3 -78 7 -95 9 -16 2 -91 7 -165 11 -74 4
-151 8 -170 9 -19 1 -426 3 -903 4 l-868 1 5 38 c3 20 8 73 11 117 4 44 8 87
10 95 5 21 19 263 30 540 2 63 7 142 10 175 3 33 8 87 10 120 3 33 7 85 10
115 7 70 13 193 21 395 8 215 8 217 0 320 -3 50 -9 126 -12 170 -4 44 -7 94
-9 111 -1 18 -21 78 -44 135 -74 182 -55 162 -183 198 -62 17 -115 31 -118 30
-3 0 -72 -20 -155 -43z"/>
</g>
</svg>
